<svg width="81" height="80" viewBox="0 0 81 80" fill="none" xmlns="http://www.w3.org/2000/svg">
<path d="M27.1666 55.8327H18.6C9.63329 55.8327 4.66663 50.8993 4.66663 41.8993V18.0993C4.66663 9.13268 9.59996 4.16602 18.6 4.16602H33.8333C42.8 4.16602 47.7666 9.09935 47.7666 18.0993C47.7666 19.466 46.6333 20.5993 45.2666 20.5993C43.9 20.5993 42.7666 19.466 42.7666 18.0993C42.7666 11.8327 40.1 9.16602 33.8333 9.16602H18.6C12.3333 9.16602 9.66663 11.8327 9.66663 18.0993V41.8993C9.66663 48.166 12.3333 50.8327 18.6 50.8327H27.1666C28.5333 50.8327 29.6666 51.966 29.6666 53.3327C29.6666 54.6993 28.5333 55.8327 27.1666 55.8327Z" fill="#000066"/>
<path d="M62.401 75.8327H47.1677C38.201 75.8327 33.2344 70.8994 33.2344 61.8994V38.0994C33.2344 29.1327 38.1677 24.166 47.1677 24.166H62.401C71.3677 24.166 76.3344 29.0994 76.3344 38.0994V61.8994C76.3344 70.8994 71.401 75.8327 62.401 75.8327ZM47.1677 29.166C40.901 29.166 38.2344 31.8327 38.2344 38.0994V61.8994C38.2344 68.166 40.901 70.8327 47.1677 70.8327H62.401C68.6677 70.8327 71.3344 68.166 71.3344 61.8994V38.0994C71.3344 31.8327 68.6677 29.166 62.401 29.166H47.1677Z" fill="#000066"/>
<path d="M60.9333 52.5H50.1C48.7333 52.5 47.6 51.3667 47.6 50C47.6 48.6333 48.7333 47.5 50.1 47.5H60.9333C62.3 47.5 63.4333 48.6333 63.4333 50C63.4333 51.3667 62.3 52.5 60.9333 52.5Z" fill="#000066"/>
<path d="M55.5 57.9329C54.1333 57.9329 53 56.7996 53 55.4329V44.5996C53 43.2329 54.1333 42.0996 55.5 42.0996C56.8667 42.0996 58 43.2329 58 44.5996V55.4329C58 56.7996 56.8667 57.9329 55.5 57.9329Z" fill="#000066"/>
</svg>
