<svg width="32" height="32" viewBox="0 0 32 32" fill="none" xmlns="http://www.w3.org/2000/svg">
<path d="M20.4133 20.026C19.64 20.026 18.8 19.7727 17.96 19.2527L16.2 18.186C16.12 18.1327 15.88 18.1327 15.8 18.186L14.04 19.2527C12.6 20.1327 11.1866 20.266 10.0533 19.626C8.94665 18.9993 8.33331 17.746 8.33331 16.106V6.70602C8.33331 3.45268 10.1066 1.66602 13.3333 1.66602H18.6666C21.8933 1.66602 23.6666 3.45268 23.6666 6.70602V16.106C23.6666 17.7593 23.0533 19.0127 21.9466 19.626C21.48 19.8927 20.96 20.026 20.4133 20.026ZM16 16.146C16.44 16.146 16.88 16.2527 17.24 16.466L19 17.5327C19.7866 18.0127 20.5066 18.1327 20.96 17.8793C21.4 17.626 21.6533 16.9727 21.6533 16.0927V6.70602C21.6533 4.57268 20.76 3.66602 18.6533 3.66602H13.32C11.2133 3.66602 10.32 4.57268 10.32 6.70602V16.106C10.32 16.986 10.5733 17.6393 11.0133 17.8927C11.4666 18.146 12.1866 18.026 12.9733 17.546L14.7333 16.4793C15.12 16.2527 15.56 16.146 16 16.146Z" fill="#000066"/>
<path d="M20 30.3327H12C4.76002 30.3327 1.66669 27.2127 1.66669 19.906V15.866C1.66669 9.65269 3.90669 6.50602 8.92002 5.66602C9.45335 5.57269 9.97335 5.94602 10.0667 6.49269C10.16 7.03936 9.78669 7.54602 9.24002 7.63936C5.22669 8.30602 3.65335 10.6127 3.65335 15.866V19.906C3.65335 26.0527 5.90669 28.3327 11.9867 28.3327H19.9867C26.0667 28.3327 28.32 26.0527 28.32 19.906V15.866C28.32 10.5327 26.6934 8.22602 22.5067 7.59936C21.96 7.51936 21.5867 7.01269 21.6667 6.46602C21.7467 5.91936 22.2534 5.54602 22.8 5.62602C28 6.39936 30.32 9.54602 30.32 15.866V19.906C30.3334 27.2127 27.24 30.3327 20 30.3327Z" fill="#000066"/>
</svg>
