<svg width="48" height="48" viewBox="0 0 48 48" fill="none" xmlns="http://www.w3.org/2000/svg">
<circle cx="24" cy="24" r="24" fill="#E0E0FF"/>
<path d="M19.9999 31.6659C19.8533 31.6659 19.6933 31.6259 19.5599 31.5592C18.5333 31.0392 17.6533 30.2659 17.0133 29.3059C16.4799 28.5059 16.4799 27.4792 17.0133 26.6792C17.6533 25.7192 18.5333 24.9459 19.5599 24.4392C20.0533 24.1859 20.6533 24.3992 20.9066 24.8926C21.1599 25.3859 20.9599 25.9859 20.4533 26.2392C19.7333 26.5992 19.1199 27.1459 18.6799 27.8126C18.5999 27.9326 18.5999 28.0926 18.6799 28.2259C19.1199 28.8926 19.7333 29.4392 20.4533 29.7992C20.9466 30.0526 21.1466 30.6526 20.9066 31.1459C20.7199 31.4659 20.3599 31.6659 19.9999 31.6659Z" fill="#000066"/>
<path d="M28.28 31.6672C27.9067 31.6672 27.56 31.4672 27.3867 31.1205C27.1334 30.6272 27.3334 30.0272 27.84 29.7739C28.56 29.4139 29.1734 28.8672 29.6134 28.2005C29.6934 28.0805 29.6934 27.9205 29.6134 27.7872C29.1734 27.1205 28.56 26.5739 27.84 26.2139C27.3467 25.9605 27.1467 25.3605 27.3867 24.8672C27.64 24.3739 28.24 24.1739 28.7334 24.4139C29.76 24.9339 30.64 25.7072 31.28 26.6672C31.8134 27.4672 31.8134 28.4939 31.28 29.2939C30.64 30.2539 29.76 31.0272 28.7334 31.5339C28.5734 31.6272 28.4267 31.6672 28.28 31.6672Z" fill="#000066"/>
<path d="M28 38.3327H20C12.76 38.3327 9.66663 35.2393 9.66663 27.9993V19.9993C9.66663 12.7593 12.76 9.66602 20 9.66602H28C35.24 9.66602 38.3333 12.7593 38.3333 19.9993V27.9993C38.3333 35.2393 35.24 38.3327 28 38.3327ZM20 11.666C13.8533 11.666 11.6666 13.8527 11.6666 19.9993V27.9993C11.6666 34.146 13.8533 36.3327 20 36.3327H28C34.1466 36.3327 36.3333 34.146 36.3333 27.9993V19.9993C36.3333 13.8527 34.1466 11.666 28 11.666H20Z" fill="#000066"/>
<path d="M10.974 19.6793C10.4273 19.6793 9.974 19.226 9.974 18.6793C9.974 18.1327 10.414 17.6793 10.974 17.6793L36.6007 17.666C37.1473 17.666 37.6007 18.1193 37.6007 18.666C37.6007 19.2127 37.1607 19.666 36.6007 19.666L10.974 19.6793Z" fill="#292D32"/>
</svg>
