<svg width="48" height="48" viewBox="0 0 48 48" fill="none" xmlns="http://www.w3.org/2000/svg">
<circle cx="24" cy="24" r="24" fill="#E0E0FF"/>
<path d="M28 38.3327H20C12.76 38.3327 9.66663 35.2393 9.66663 27.9993V19.9993C9.66663 12.7593 12.76 9.66602 20 9.66602H28C35.24 9.66602 38.3333 12.7593 38.3333 19.9993V27.9993C38.3333 35.2393 35.24 38.3327 28 38.3327ZM20 11.666C13.8533 11.666 11.6666 13.8527 11.6666 19.9993V27.9993C11.6666 34.146 13.8533 36.3327 20 36.3327H28C34.1466 36.3327 36.3333 34.146 36.3333 27.9993V19.9993C36.3333 13.8527 34.1466 11.666 28 11.666H20Z" fill="#000066"/>
<path d="M22.1073 28.7735C21.8406 28.7735 21.5873 28.6668 21.4006 28.4801L17.6273 24.7068C17.2406 24.3201 17.2406 23.6801 17.6273 23.2935C18.0139 22.9068 18.6539 22.9068 19.0406 23.2935L22.1073 26.3601L28.9606 19.5068C29.3473 19.1201 29.9873 19.1201 30.3739 19.5068C30.7606 19.8935 30.7606 20.5335 30.3739 20.9201L22.8139 28.4801C22.6273 28.6668 22.3739 28.7735 22.1073 28.7735Z" fill="#000066"/>
</svg>
