<svg width="24" height="24" viewBox="0 0 24 24" fill="none" xmlns="http://www.w3.org/2000/svg">
<path d="M9.98959 22.7506C9.78959 22.7506 9.62959 22.7106 9.50959 22.6606C9.10959 22.5106 8.42959 22.0206 8.42959 20.4706V14.0206H6.08959C4.74959 14.0206 4.26959 13.3906 4.09959 13.0206C3.92959 12.6406 3.77959 11.8706 4.65959 10.8606L12.2296 2.26062C13.2496 1.10062 14.0796 1.18062 14.4796 1.33062C14.8796 1.48062 15.5596 1.97062 15.5596 3.52062V9.97062H17.8996C19.2396 9.97062 19.7196 10.6006 19.8896 10.9706C20.0596 11.3506 20.2096 12.1206 19.3296 13.1306L11.7596 21.7306C11.0496 22.5406 10.4296 22.7506 9.98959 22.7506ZM13.9296 2.74062C13.8996 2.78062 13.6896 2.88062 13.3596 3.26062L5.78959 11.8606C5.50959 12.1806 5.46959 12.3806 5.46959 12.4206C5.48959 12.4306 5.66959 12.5306 6.08959 12.5306H9.17959C9.58959 12.5306 9.92959 12.8706 9.92959 13.2806V20.4806C9.92959 20.9806 10.0196 21.2006 10.0596 21.2606C10.0896 21.2206 10.2996 21.1206 10.6296 20.7406L18.1996 12.1406C18.4796 11.8206 18.5196 11.6206 18.5196 11.5806C18.4996 11.5706 18.3196 11.4706 17.8996 11.4706H14.8096C14.3996 11.4706 14.0596 11.1306 14.0596 10.7206V3.52062C14.0696 3.02062 13.9696 2.81062 13.9296 2.74062Z" fill="#0D6EFD"/>
</svg>
