<svg width="48" height="48" viewBox="0 0 48 48" fill="none" xmlns="http://www.w3.org/2000/svg">
<circle cx="24" cy="24" r="24" fill="#E0E0FF"/>
<path d="M37.3333 38.334H10.6666C10.12 38.334 9.66663 37.8807 9.66663 37.334C9.66663 36.7873 10.12 36.334 10.6666 36.334H37.3333C37.88 36.334 38.3333 36.7873 38.3333 37.334C38.3333 37.8807 37.88 38.334 37.3333 38.334Z" fill="#000066"/>
<path d="M12.9336 37.3336H10.9336L11.0003 21.2936C11.0003 20.1603 11.5203 19.107 12.4136 18.4136L21.7469 11.147C23.0669 10.1203 24.9203 10.1203 26.2536 11.147L35.5869 18.4003C36.4669 19.0936 37.0003 20.1736 37.0003 21.2936V37.3336H35.0003V21.3069C35.0003 20.8003 34.7603 20.307 34.3603 19.987L25.0269 12.7336C24.4269 12.267 23.5869 12.267 22.9736 12.7336L13.6403 20.0003C13.2403 20.307 13.0003 20.8003 13.0003 21.3069L12.9336 37.3336Z" fill="#000066"/>
<path d="M30.6666 38.3327H17.3333C16.7866 38.3327 16.3333 37.8794 16.3333 37.3327V24.666C16.3333 23.0127 17.68 21.666 19.3333 21.666H28.6666C30.32 21.666 31.6666 23.0127 31.6666 24.666V37.3327C31.6666 37.8794 31.2133 38.3327 30.6666 38.3327ZM18.3333 36.3327H29.6666V24.666C29.6666 24.1193 29.2133 23.666 28.6666 23.666H19.3333C18.7866 23.666 18.3333 24.1193 18.3333 24.666V36.3327Z" fill="#000066"/>
<path d="M21.3333 32.666C20.7866 32.666 20.3333 32.2127 20.3333 31.666V29.666C20.3333 29.1193 20.7866 28.666 21.3333 28.666C21.88 28.666 22.3333 29.1193 22.3333 29.666V31.666C22.3333 32.2127 21.88 32.666 21.3333 32.666Z" fill="#000066"/>
<path d="M26 19H22C21.4533 19 21 18.5467 21 18C21 17.4533 21.4533 17 22 17H26C26.5467 17 27 17.4533 27 18C27 18.5467 26.5467 19 26 19Z" fill="#000066"/>
</svg>
