<svg width="19" height="18" viewBox="0 0 19 18" fill="none" xmlns="http://www.w3.org/2000/svg">
<path d="M11.5775 14.8132H7.44497C7.11497 14.8132 6.69497 14.7757 6.41747 14.4907C6.14747 14.2132 6.15497 13.8682 6.16247 13.6357V12.9682C4.27247 11.7082 3.02747 9.51821 3.02747 7.43321C3.02747 5.46071 3.91247 3.61571 5.44997 2.37821C6.98747 1.14071 9.00497 0.675707 10.9775 1.11071C12.8525 1.52321 14.4725 2.77571 15.3125 4.46321C16.94 7.74071 15.3725 11.2882 12.8675 12.9757V13.5382C12.875 13.7557 12.8825 14.1532 12.575 14.4682C12.3425 14.6932 12.0125 14.8132 11.5775 14.8132ZM7.27997 13.6807C7.31747 13.6807 7.36997 13.6882 7.43747 13.6882H11.5775C11.6525 13.6882 11.705 13.6807 11.735 13.6732C11.735 13.6507 11.735 13.6207 11.735 13.5982V12.6532C11.735 12.4582 11.84 12.2707 12.005 12.1732C14.225 10.8307 15.695 7.76321 14.2925 4.95071C13.6025 3.56321 12.2675 2.53571 10.7225 2.19821C9.08747 1.83821 7.41497 2.22071 6.13997 3.24821C4.86497 4.27571 4.13747 5.79821 4.13747 7.43321C4.13747 9.51821 5.57747 11.3182 7.00247 12.1807C7.17497 12.2857 7.27247 12.4657 7.27247 12.6607V13.6732C7.27997 13.6732 7.27997 13.6732 7.27997 13.6807Z" fill="#1B1B1F"/>
<path d="M12.1252 17.0626C12.0727 17.0626 12.0202 17.0551 11.9677 17.0401C10.3477 16.5751 8.64519 16.5751 7.02519 17.0401C6.72519 17.1226 6.41769 16.9501 6.32769 16.6501C6.23769 16.3501 6.41769 16.0426 6.71769 15.9526C8.53269 15.4351 10.4602 15.4351 12.2752 15.9526C12.5752 16.0351 12.7477 16.3501 12.6652 16.6501C12.5977 16.9051 12.3727 17.0626 12.1252 17.0626Z" fill="#1B1B1F"/>
</svg>
