<svg width="25" height="24" viewBox="0 0 25 24" fill="none" xmlns="http://www.w3.org/2000/svg">
<path d="M10.49 22.78C9.88999 22.78 9.31999 22.48 8.92999 21.95L7.73001 20.35C7.73001 20.36 7.68 20.33 7.66 20.33H7.29001C3.87001 20.33 1.75 19.4 1.75 14.79V10.79C1.75 6.58001 4.32001 5.48001 6.48001 5.29001C6.72001 5.26001 7.00001 5.25 7.29001 5.25H13.69C17.31 5.25 19.23 7.17001 19.23 10.79V14.79C19.23 15.08 19.22 15.36 19.18 15.63C19 17.76 17.9 20.33 13.69 20.33H13.29L12.05 21.95C11.66 22.48 11.09 22.78 10.49 22.78ZM7.29001 6.75C7.06001 6.75 6.84 6.76 6.63 6.78C4.31 6.98 3.25 8.25001 3.25 10.79V14.79C3.25 18.22 4.31001 18.83 7.29001 18.83H7.69C8.14 18.83 8.64999 19.08 8.92999 19.44L10.13 21.05C10.35 21.35 10.63 21.35 10.85 21.05L12.05 19.45C12.34 19.06 12.8 18.83 13.29 18.83H13.69C16.23 18.83 17.5 17.76 17.69 15.48C17.72 15.24 17.73 15.02 17.73 14.79V10.79C17.73 8.00001 16.48 6.75 13.69 6.75H7.29001Z" fill="#0D6EFD"/>
<path d="M10.4902 14.1895C9.93023 14.1895 9.49023 13.7395 9.49023 13.1895C9.49023 12.6395 9.94023 12.1895 10.4902 12.1895C11.0402 12.1895 11.4902 12.6395 11.4902 13.1895C11.4902 13.7395 11.0502 14.1895 10.4902 14.1895Z" fill="#0D6EFD"/>
<path d="M13.6895 14.1895C13.1295 14.1895 12.6895 13.7395 12.6895 13.1895C12.6895 12.6395 13.1395 12.1895 13.6895 12.1895C14.2395 12.1895 14.6895 12.6395 14.6895 13.1895C14.6895 13.7395 14.2395 14.1895 13.6895 14.1895Z" fill="#0D6EFD"/>
<path d="M7.2998 14.1895C6.7398 14.1895 6.2998 13.7395 6.2998 13.1895C6.2998 12.6395 6.7498 12.1895 7.2998 12.1895C7.8498 12.1895 8.2998 12.6395 8.2998 13.1895C8.2998 13.7395 7.8498 14.1895 7.2998 14.1895Z" fill="#0D6EFD"/>
<path d="M18.4396 16.29C18.2396 16.29 18.0396 16.21 17.8996 16.06C17.7396 15.9 17.6697 15.67 17.6997 15.45C17.7297 15.24 17.7396 15.02 17.7396 14.79V10.79C17.7396 8.00001 16.4897 6.75 13.6997 6.75H7.29963C7.06963 6.75 6.84966 6.76 6.63966 6.78C6.41966 6.81 6.18964 6.72999 6.02964 6.57999C5.86964 6.41999 5.77963 6.20001 5.79963 5.98001C5.97963 3.82001 7.08963 1.25 11.2996 1.25H17.6997C21.3197 1.25 23.2396 3.17001 23.2396 6.79001V10.79C23.2396 15 20.6697 16.1 18.5097 16.29C18.4797 16.29 18.4596 16.29 18.4396 16.29ZM7.41966 5.25H13.6896C17.3096 5.25 19.2297 7.17001 19.2297 10.79V14.66C20.9297 14.24 21.7297 12.99 21.7297 10.79V6.79001C21.7297 4.00001 20.4796 2.75 17.6896 2.75H11.2897C9.08965 2.75 7.84966 3.55 7.41966 5.25Z" fill="#0D6EFD"/>
</svg>
