<svg width="48" height="48" viewBox="0 0 48 48" fill="none" xmlns="http://www.w3.org/2000/svg">
<circle cx="24" cy="24" r="24" fill="#E0E0FF"/>
<path d="M12.6667 32.9993C12.12 32.9993 11.6667 32.546 11.6667 31.9993V17.3327C11.6667 11.4527 13.4533 9.66602 19.3333 9.66602H28.6667C34.5467 9.66602 36.3333 11.4527 36.3333 17.3327V30.666C36.3333 30.8793 36.3333 31.0793 36.32 31.2927C36.28 31.8393 35.7867 32.266 35.2533 32.226C34.7067 32.186 34.28 31.706 34.32 31.1594C34.3333 30.9994 34.3333 30.826 34.3333 30.666V17.3327C34.3333 12.5727 33.44 11.666 28.6667 11.666H19.3333C14.56 11.666 13.6667 12.5727 13.6667 17.3327V31.9993C13.6667 32.546 13.2133 32.9993 12.6667 32.9993Z" fill="#46464A"/>
<path d="M30.6667 38.3333H17.3333C14.2133 38.3333 11.6667 35.7867 11.6667 32.6667V31.8C11.6667 29.1467 13.8267 27 16.4667 27H35.3333C35.88 27 36.3333 27.4533 36.3333 28V32.6667C36.3333 35.7867 33.7867 38.3333 30.6667 38.3333ZM16.4667 29C14.92 29 13.6667 30.2533 13.6667 31.8V32.6667C13.6667 34.6933 15.3067 36.3333 17.3333 36.3333H30.6667C32.6933 36.3333 34.3333 34.6933 34.3333 32.6667V29H16.4667Z" fill="#46464A"/>
<path d="M29.3333 18.334H18.6667C18.12 18.334 17.6667 17.8807 17.6667 17.334C17.6667 16.7873 18.12 16.334 18.6667 16.334H29.3333C29.88 16.334 30.3333 16.7873 30.3333 17.334C30.3333 17.8807 29.88 18.334 29.3333 18.334Z" fill="#292D32"/>
<path d="M25.3333 23H18.6667C18.12 23 17.6667 22.5467 17.6667 22C17.6667 21.4533 18.12 21 18.6667 21H25.3333C25.88 21 26.3333 21.4533 26.3333 22C26.3333 22.5467 25.88 23 25.3333 23Z" fill="#292D32"/>
</svg>
