<svg width="41" height="40" viewBox="0 0 41 40" fill="none" xmlns="http://www.w3.org/2000/svg">
<circle cx="20.25" cy="20" r="20" fill="#E4E2E6"/>
<path d="M20.25 18.5195C19.84 18.5195 19.5 18.1795 19.5 17.7695V14.4395C19.5 14.0295 19.84 13.6895 20.25 13.6895C20.66 13.6895 21 14.0295 21 14.4395V17.7695C21 18.1895 20.66 18.5195 20.25 18.5195Z" fill="#46464A"/>
<path d="M20.27 28.3502C17.69 28.3502 15.12 27.9402 12.67 27.1202C11.76 26.8202 11.07 26.1702 10.77 25.3502C10.47 24.5302 10.57 23.5902 11.06 22.7702L12.33 20.6502C12.61 20.1802 12.86 19.3002 12.86 18.7502V16.6502C12.86 12.5602 16.18 9.24023 20.27 9.24023C24.36 9.24023 27.68 12.5602 27.68 16.6502V18.7502C27.68 19.2902 27.93 20.1802 28.21 20.6502L29.48 22.7702C29.95 23.5502 30.03 24.4802 29.72 25.3302C29.41 26.1802 28.73 26.8302 27.87 27.1202C25.42 27.9502 22.85 28.3502 20.27 28.3502ZM20.27 10.7502C17.01 10.7502 14.36 13.4002 14.36 16.6602V18.7602C14.36 19.5702 14.04 20.7402 13.62 21.4302L12.35 23.5602C12.09 23.9902 12.03 24.4502 12.18 24.8502C12.33 25.2502 12.67 25.5502 13.15 25.7102C17.75 27.2402 22.81 27.2402 27.41 25.7102C27.84 25.5702 28.17 25.2502 28.32 24.8302C28.48 24.4102 28.43 23.9502 28.2 23.5602L26.93 21.4402C26.51 20.7502 26.19 19.5802 26.19 18.7702V16.6702C26.18 13.4002 23.53 10.7502 20.27 10.7502Z" fill="#46464A"/>
<path d="M20.25 30.9003C19.18 30.9003 18.13 30.4603 17.37 29.7003C16.61 28.9403 16.17 27.8903 16.17 26.8203H17.67C17.67 27.5003 17.95 28.1603 18.43 28.6403C18.91 29.1203 19.57 29.4003 20.25 29.4003C21.67 29.4003 22.83 28.2403 22.83 26.8203H24.33C24.33 29.0703 22.5 30.9003 20.25 30.9003Z" fill="#46464A"/>
</svg>
