<svg width="48" height="48" viewBox="0 0 48 48" fill="none" xmlns="http://www.w3.org/2000/svg">
<circle cx="24" cy="24" r="24" fill="#E0E0FF"/>
<path d="M30.6666 38.3327H17.3333C11.4533 38.3327 9.66663 36.546 9.66663 30.666V17.3327C9.66663 11.4527 11.4533 9.66602 17.3333 9.66602H19.3333C21.6666 9.66602 22.4 10.426 23.3333 11.666L25.3333 14.3327C25.7733 14.9193 25.84 14.9993 26.6666 14.9993H30.6666C36.5466 14.9993 38.3333 16.786 38.3333 22.666V30.666C38.3333 36.546 36.5466 38.3327 30.6666 38.3327ZM17.3333 11.666C12.5733 11.666 11.6666 12.5727 11.6666 17.3327V30.666C11.6666 35.426 12.5733 36.3327 17.3333 36.3327H30.6666C35.4266 36.3327 36.3333 35.426 36.3333 30.666V22.666C36.3333 17.906 35.4266 16.9993 30.6666 16.9993H26.6666C24.96 16.9993 24.4 16.4127 23.7333 15.5327L21.7333 12.866C21.04 11.946 20.84 11.666 19.3333 11.666H17.3333Z" fill="#46464A"/>
</svg>
