<svg width="48" height="48" viewBox="0 0 48 48" fill="none" xmlns="http://www.w3.org/2000/svg">
<circle cx="24" cy="24" r="24" fill="#E0E0FF"/>
<path d="M32.6669 35H27.3336C26.7869 35 26.3336 34.5467 26.3336 34C26.3336 33.4533 26.7869 33 27.3336 33H32.6669C33.2136 33 33.6669 33.4533 33.6669 34C33.6669 34.5467 33.2136 35 32.6669 35Z" fill="#000066"/>
<path d="M30.0002 37.6673C29.4535 37.6673 29.0002 37.214 29.0002 36.6673V31.334C29.0002 30.7873 29.4535 30.334 30.0002 30.334C30.5468 30.334 31.0002 30.7873 31.0002 31.334V36.6673C31.0002 37.214 30.5468 37.6673 30.0002 37.6673Z" fill="#000066"/>
<path d="M24.2129 23.4927C24.1729 23.4927 24.1463 23.4927 24.1063 23.4927C24.0396 23.4793 23.9463 23.4793 23.8663 23.4927C19.9996 23.3727 17.0796 20.3327 17.0796 16.586C17.0663 14.746 17.7863 13.0127 19.0929 11.706C20.3996 10.3993 22.1329 9.66602 23.9863 9.66602C27.7996 9.66602 30.9063 12.7727 30.9063 16.586C30.9063 20.3327 27.9863 23.3593 24.2529 23.4927C24.2396 23.4927 24.2263 23.4927 24.2129 23.4927ZM23.9863 11.666C22.6663 11.666 21.4396 12.186 20.5063 13.106C19.5863 14.0393 19.0796 15.266 19.0796 16.5727C19.0796 19.2393 21.1596 21.3993 23.8129 21.4793C23.8929 21.466 24.0663 21.466 24.2396 21.4793C26.8663 21.3593 28.9063 19.2127 28.9063 16.5727C28.9063 13.8793 26.6929 11.666 23.9863 11.666Z" fill="#000066"/>
<path d="M23.9869 38.0809C21.2669 38.0809 18.6935 37.3742 16.7469 36.0676C14.8935 34.8276 13.8802 33.1342 13.8802 31.3076C13.8802 29.4809 14.9069 27.8009 16.7469 26.5742C20.7335 23.9076 27.2135 23.9076 31.2002 26.5742C31.6535 26.8809 31.7869 27.5076 31.4802 27.9609C31.1735 28.4276 30.5469 28.5476 30.0935 28.2409C26.7735 26.0276 21.1735 26.0276 17.8535 28.2409C16.5735 29.0942 15.8802 30.1742 15.8802 31.3076C15.8802 32.4409 16.5735 33.5476 17.8535 34.4009C19.4669 35.4809 21.6402 36.0676 23.9735 36.0676C24.5202 36.0676 24.9735 36.5209 24.9735 37.0676C24.9735 37.6142 24.5335 38.0809 23.9869 38.0809Z" fill="#000066"/>
</svg>
