<svg width="48" height="48" viewBox="0 0 48 48" fill="none" xmlns="http://www.w3.org/2000/svg">
<circle cx="24" cy="24" r="24" fill="#E0E0FF"/>
<path d="M24.0138 30.6657C22.8805 30.6657 21.7338 30.3724 20.8405 29.7991L12.8138 24.5591C11.3205 23.5857 10.4271 21.9457 10.4271 20.1591C10.4271 18.3724 11.3205 16.7324 12.8138 15.7591L20.8538 10.5324C22.6405 9.3724 25.4271 9.3724 27.2005 10.5457L35.1871 15.7857C36.6671 16.7591 37.5605 18.3991 37.5605 20.1724C37.5605 21.9457 36.6671 23.5857 35.1871 24.5591L27.2005 29.7991C26.3071 30.3857 25.1605 30.6657 24.0138 30.6657ZM24.0138 11.6657C23.2538 11.6657 22.4938 11.8391 21.9471 12.2124L13.9205 17.4391C12.9871 18.0524 12.4405 19.0391 12.4405 20.1591C12.4405 21.2791 12.9738 22.2657 13.9205 22.8791L21.9471 28.1191C23.0538 28.8391 25.0005 28.8391 26.1071 28.1191L34.0938 22.8791C35.0271 22.2657 35.5605 21.2791 35.5605 20.1591C35.5605 19.0391 35.0271 18.0524 34.0938 17.4391L26.1071 12.1991C25.5471 11.8524 24.7871 11.6657 24.0138 11.6657Z" fill="#000066"/>
<path d="M24 38.3328C23.4134 38.3328 22.8134 38.2528 22.3334 38.0928L18.08 36.6795C16.0667 36.0128 14.48 33.8128 14.4934 31.6928L14.5067 25.4395C14.5067 24.8928 14.96 24.4395 15.5067 24.4395C16.0534 24.4395 16.5067 24.8928 16.5067 25.4395L16.4934 31.6928C16.4934 32.9461 17.5334 34.3861 18.72 34.7861L22.9734 36.1995C23.5067 36.3728 24.4934 36.3728 25.0267 36.1995L29.28 34.7861C30.4667 34.3861 31.5067 32.9461 31.5067 31.7061V25.5195C31.5067 24.9728 31.96 24.5195 32.5067 24.5195C33.0534 24.5195 33.5067 24.9728 33.5067 25.5195V31.7061C33.5067 33.8261 31.9334 36.0128 29.92 36.6928L25.6667 38.1061C25.1867 38.2528 24.5867 38.3328 24 38.3328Z" fill="#000066"/>
<path d="M36.5338 29C35.9871 29 35.5338 28.5467 35.5338 28V20C35.5338 19.4533 35.9871 19 36.5338 19C37.0805 19 37.5338 19.4533 37.5338 20V28C37.5338 28.5467 37.0805 29 36.5338 29Z" fill="#000066"/>
</svg>
