<?xml version="1.0" standalone="no"?>
<svg xmlns:xlink="http://www.w3.org/1999/xlink" id="wave" style="transform:rotate(0deg); transition: 0.3s" viewBox="0 0 1440 490" version="1.1" xmlns="http://www.w3.org/2000/svg"><defs><linearGradient id="sw-gradient-0" x1="0" x2="0" y1="1" y2="0"><stop stop-color="rgba(218, 226, 255, 1)" offset="0%"/><stop stop-color="rgba(218, 226, 255, 1)" offset="100%"/></linearGradient></defs><path style="transform:translate(0, 0px); opacity:1" fill="url(#sw-gradient-0)" d="M0,294L26.7,261.3C53.3,229,107,163,160,114.3C213.3,65,267,33,320,73.5C373.3,114,427,229,480,285.8C533.3,343,587,343,640,326.7C693.3,310,747,278,800,285.8C853.3,294,907,343,960,375.7C1013.3,408,1067,425,1120,416.5C1173.3,408,1227,376,1280,334.8C1333.3,294,1387,245,1440,204.2C1493.3,163,1547,131,1600,147C1653.3,163,1707,229,1760,277.7C1813.3,327,1867,359,1920,334.8C1973.3,310,2027,229,2080,220.5C2133.3,212,2187,278,2240,302.2C2293.3,327,2347,310,2400,302.2C2453.3,294,2507,294,2560,302.2C2613.3,310,2667,327,2720,302.2C2773.3,278,2827,212,2880,220.5C2933.3,229,2987,310,3040,302.2C3093.3,294,3147,196,3200,155.2C3253.3,114,3307,131,3360,138.8C3413.3,147,3467,147,3520,122.5C3573.3,98,3627,49,3680,40.8C3733.3,33,3787,65,3813,81.7L3840,98L3840,490L3813.3,490C3786.7,490,3733,490,3680,490C3626.7,490,3573,490,3520,490C3466.7,490,3413,490,3360,490C3306.7,490,3253,490,3200,490C3146.7,490,3093,490,3040,490C2986.7,490,2933,490,2880,490C2826.7,490,2773,490,2720,490C2666.7,490,2613,490,2560,490C2506.7,490,2453,490,2400,490C2346.7,490,2293,490,2240,490C2186.7,490,2133,490,2080,490C2026.7,490,1973,490,1920,490C1866.7,490,1813,490,1760,490C1706.7,490,1653,490,1600,490C1546.7,490,1493,490,1440,490C1386.7,490,1333,490,1280,490C1226.7,490,1173,490,1120,490C1066.7,490,1013,490,960,490C906.7,490,853,490,800,490C746.7,490,693,490,640,490C586.7,490,533,490,480,490C426.7,490,373,490,320,490C266.7,490,213,490,160,490C106.7,490,53,490,27,490L0,490Z"/></svg>